<svg xmlns="http://www.w3.org/2000/svg" xmlns:xlink="http://www.w3.org/1999/xlink" preserveAspectRatio="xMidYMid" width="109" height="92" viewBox="0 0 109 92">
  <defs>
    <style>
      .cls-1 {
        fill: #000;
        opacity: 0.15;
        fill-rule: evenodd;
      }
    </style>
  </defs>
  <path d="M104.733,87.843 C101.894,90.610 98.470,91.992 94.460,91.992 L14.539,91.992 C10.527,91.992 7.104,90.610 4.265,87.843 C1.428,85.081 0.008,81.745 0.008,77.838 L0.008,28.302 C0.008,24.394 1.428,21.058 4.265,18.296 C7.104,15.532 10.527,14.149 14.539,14.149 L27.254,14.149 L30.148,6.631 C30.868,4.825 32.182,3.267 34.093,1.960 C36.004,0.649 37.963,-0.005 39.968,-0.005 L69.030,-0.005 C71.036,-0.005 72.995,0.649 74.906,1.960 C76.818,3.267 78.132,4.825 78.851,6.631 L81.744,14.149 L94.460,14.149 C98.471,14.149 101.894,15.532 104.733,18.296 C107.571,21.058 108.990,24.394 108.989,28.302 L108.989,77.838 C108.989,81.745 107.569,85.081 104.733,87.843 ZM72.464,35.572 C67.487,30.725 61.500,28.304 54.499,28.304 C47.498,28.304 41.510,30.725 36.535,35.572 C31.558,40.419 29.070,46.252 29.070,53.071 C29.070,59.890 31.558,65.724 36.535,70.568 C41.511,75.416 47.498,77.840 54.499,77.840 C61.500,77.840 67.489,75.416 72.464,70.568 C77.439,65.721 79.928,59.890 79.928,53.071 C79.928,46.252 77.441,40.419 72.464,35.572 ZM54.499,68.993 C49.996,68.993 46.145,67.436 42.948,64.320 C39.750,61.206 38.151,57.456 38.151,53.071 C38.151,48.685 39.750,44.934 42.948,41.820 C46.145,38.706 49.996,37.149 54.499,37.149 C59.002,37.149 62.852,38.706 66.051,41.820 C69.248,44.934 70.847,48.685 70.847,53.071 C70.847,57.456 69.248,61.206 66.051,64.320 C62.852,67.436 59.002,68.993 54.499,68.993 Z" class="cls-1"/>
</svg>
