<?xml version="1.0" encoding="UTF-8"?>
<svg width="79px" height="65px" viewBox="0 0 79 65" version="1.1" xmlns="http://www.w3.org/2000/svg" xmlns:xlink="http://www.w3.org/1999/xlink">
    <!-- Generator: Sketch 43 (38999) - http://www.bohemiancoding.com/sketch -->
    <title>no photo</title>
    <desc>Created with Sketch.</desc>
    <defs></defs>
    <g id="Page-1" stroke="none" stroke-width="1" fill="none" fill-rule="evenodd">
        <g id="С-1-баннером-03" transform="translate(-390.000000, -495.000000)">
            <g id="Group" transform="translate(390.000000, 495.000000)">
                <g id="no-photo">
                    <path d="M57.4378927,32.2434184 C56.3958762,33.2590083 55.1391433,33.7662527 53.6673272,33.7662527 L24.3334067,33.7662527 C22.8608565,33.7662527 21.6044907,33.2590083 20.5624742,32.2434184 C19.5211918,31.2296637 19,30.0052301 19,28.5712187 L19,10.3897009 C19,8.95532244 19.5211918,7.73088883 20.5624742,6.71713415 C21.6044907,5.70264539 22.8608565,5.19503397 24.3334067,5.19503397 L29.0002752,5.19503397 L30.0624787,2.43565391 C30.326745,1.77278607 30.8090309,1.20094328 31.5104375,0.721226632 C32.2118442,0.240041841 32.9308686,7.10542736e-15 33.6667767,7.10542736e-15 L44.3335901,7.10542736e-15 C45.0698653,7.10542736e-15 45.7888897,0.240041841 46.4902963,0.721226632 C47.19207,1.20094328 47.6743559,1.77278607 47.9382552,2.43565391 L49.0000916,5.19503397 L53.6673272,5.19503397 C55.1395104,5.19503397 56.3958762,5.70264539 57.4378927,6.71713415 C58.4795421,7.73088883 59.0003668,8.95532244 58.9999998,10.3897009 L58.9999998,28.5712187 C58.9999998,30.0052301 58.478808,31.2296637 57.4378927,32.2434184 Z M45.5939933,13.0580559 C43.7672529,11.2790302 41.5698056,10.390435 39.0001834,10.390435 C36.4305612,10.390435 34.2327469,11.2790302 32.4067406,13.0580559 C30.5800001,14.8370816 29.6668134,16.9780053 29.6668134,19.4808268 C29.6668134,21.9836484 30.5800001,24.1249391 32.4067406,25.9028637 C34.233114,27.6822564 36.4305612,28.5719528 39.0001834,28.5719528 C41.5698056,28.5719528 43.767987,27.6822564 45.5939933,25.9028637 C47.4199997,24.123838 48.3335534,21.9836484 48.3335534,19.4808268 C48.3335534,16.9780053 47.4207338,14.8370816 45.5939933,13.0580559 Z M39.0001834,25.3247813 C37.3474183,25.3247813 35.9339609,24.7533055 34.7605453,23.6096199 C33.5867628,22.4666684 32.9998715,21.0902817 32.9998715,19.4808268 C32.9998715,17.871005 33.5867628,16.4942512 34.7605453,15.3512997 C35.9339609,14.2083482 37.3474183,13.6368724 39.0001834,13.6368724 C40.6529486,13.6368724 42.0660389,14.2083482 43.2401885,15.3512997 C44.4136041,16.4942512 45.0004954,17.871005 45.0004954,19.4808268 C45.0004954,21.0902817 44.4136041,22.4666684 43.2401885,23.6096199 C42.0660389,24.7533055 40.6529486,25.3247813 39.0001834,25.3247813 Z" id="Shape" fill="#000000" opacity="0.15"></path>
                    <path d="M0.4355,48.862 L3.1045,48.862 L3.1045,53.52 L8.0175,53.52 L8.0175,48.862 L10.6865,48.862 L10.6865,61 L8.0175,61 L8.0175,55.764 L3.1045,55.764 L3.1045,61 L0.4355,61 L0.4355,48.862 Z M16.8405,61.221 C16.1491632,61.221 15.5258361,61.1105011 14.9705,60.8895 C14.4151639,60.6684989 13.9448353,60.354002 13.5595,59.946 C13.1741647,59.537998 12.8766677,59.0506695 12.667,58.484 C12.4573323,57.9173305 12.3525,57.2940034 12.3525,56.614 C12.3525,55.9566634 12.4601656,55.3446695 12.6755,54.778 C12.8908344,54.2113305 13.1968313,53.7211687 13.5935,53.3075 C13.9901686,52.8938313 14.4633306,52.5680012 15.013,52.33 C15.5626694,52.0919988 16.17183,51.973 16.8405,51.973 C17.5431702,51.973 18.163664,52.103332 18.702,52.364 C19.240336,52.624668 19.6879982,52.9731645 20.045,53.4095 C20.4020018,53.8458355 20.6711658,54.3529971 20.8525,54.931 C21.0338342,55.5090029 21.1245,56.1096635 21.1245,56.733 L21.1245,56.9625 C21.1245,57.036167 21.1188334,57.1126663 21.1075,57.192 L14.7665,57.192 C14.8005002,57.9740039 14.9988315,58.5406649 15.3615,58.892 C15.7241685,59.2433351 16.2454966,59.419 16.9255,59.419 C17.4128358,59.419 17.8321649,59.2971679 18.1835,59.0535 C18.5348351,58.8098321 18.7501663,58.5520014 18.8295,58.28 L20.9545,58.28 C20.6144983,59.3340053 20.0931702,60.0876644 19.3905,60.541 C18.6878298,60.9943356 17.8378383,61.221 16.8405,61.221 Z M18.6935,55.662 C18.5801661,55.0499969 18.3790014,54.5853349 18.09,54.268 C17.8009986,53.9506651 17.3618363,53.792 16.7725,53.792 C16.3758313,53.792 16.0528346,53.857166 15.8035,53.9875 C15.5541654,54.117834 15.3530008,54.2793324 15.2,54.472 C15.0469992,54.6646676 14.9393336,54.8686656 14.877,55.084 C14.8146664,55.2993344 14.7778334,55.4919991 14.7665,55.662 L18.6935,55.662 Z M24.6775,54.03 L21.7875,54.03 L21.7875,52.211 L29.9815,52.211 L29.9815,54.03 L27.0915,54.03 L27.0915,61 L24.6775,61 L24.6775,54.03 Z M40.9465,60.405 L40.8955,60.405 C40.7254991,60.6203344 40.4705017,60.8101658 40.1305,60.9745 C39.7904983,61.1388342 39.4391685,61.221 39.0765,61.221 C38.4191634,61.221 37.8638356,61.0878347 37.4105,60.8215 C36.9571644,60.5551653 36.5916681,60.2038355 36.314,59.7675 C36.0363319,59.3311645 35.8351673,58.8268362 35.7105,58.2545 C35.5858327,57.6821638 35.5235,57.0900031 35.5235,56.478 C35.5235,55.7866632 35.6056658,55.1633361 35.77,54.608 C35.9343342,54.0526639 36.1638319,53.579502 36.4585,53.1885 C36.7531681,52.797498 37.1129979,52.4971677 37.538,52.2875 C37.9630021,52.0778323 38.4361641,51.973 38.9575,51.973 C39.4675025,51.973 39.8868317,52.0636658 40.2155,52.245 C40.5441683,52.4263342 40.7708327,52.6359988 40.8955,52.874 L40.9465,52.874 L40.9465,48.862 L43.3605,48.862 L43.3605,52.874 L43.4115,52.874 C43.5361673,52.6359988 43.7628317,52.4263342 44.0915,52.245 C44.4201683,52.0636658 44.8394974,51.973 45.3495,51.973 C45.8708359,51.973 46.3439979,52.0778323 46.769,52.2875 C47.1940021,52.4971677 47.5538319,52.797498 47.8485,53.1885 C48.1431681,53.579502 48.3726658,54.0526639 48.537,54.608 C48.7013342,55.1633361 48.7835,55.7866632 48.7835,56.478 C48.7835,57.0900031 48.7211673,57.6821638 48.5965,58.2545 C48.4718327,58.8268362 48.2706681,59.3311645 47.993,59.7675 C47.7153319,60.2038355 47.3498356,60.5551653 46.8965,60.8215 C46.4431644,61.0878347 45.8878366,61.221 45.2305,61.221 C44.8678315,61.221 44.5165017,61.1388342 44.1765,60.9745 C43.8364983,60.8101658 43.5815008,60.6203344 43.4115,60.405 L43.3605,60.405 L43.3605,64.077 L40.9465,64.077 L40.9465,60.405 Z M39.6375,59.419 C40.0001685,59.419 40.2976655,59.3340008 40.53,59.164 C40.7623345,58.9939991 40.9011664,58.7956678 40.9465,58.569 L40.9465,54.727 C40.8331661,54.3756649 40.6405014,54.1320007 40.3685,53.996 C40.0964986,53.8599993 39.830168,53.792 39.5695,53.792 C38.9914971,53.792 38.5750013,54.0356642 38.32,54.523 C38.0649987,55.0103358 37.9375,55.6789957 37.9375,56.529 C37.9375,56.8916685 37.9629997,57.2458316 38.014,57.5915 C38.0650003,57.9371684 38.155666,58.2459986 38.286,58.518 C38.416334,58.7900014 38.5891656,59.0081658 38.8045,59.1725 C39.0198344,59.3368342 39.2974983,59.419 39.6375,59.419 Z M44.6695,59.419 C45.0095017,59.419 45.2871656,59.3368342 45.5025,59.1725 C45.7178344,59.0081658 45.890666,58.7900014 46.021,58.518 C46.151334,58.2459986 46.2419997,57.9371684 46.293,57.5915 C46.3440003,57.2458316 46.3695,56.8916685 46.3695,56.529 C46.3695,55.6789957 46.2420013,55.0103358 45.987,54.523 C45.7319987,54.0356642 45.3155029,53.792 44.7375,53.792 C44.476832,53.792 44.2105014,53.8599993 43.9385,53.996 C43.6664986,54.1320007 43.4738339,54.3756649 43.3605,54.727 L43.3605,58.569 C43.4058336,58.7956678 43.5446655,58.9939991 43.777,59.164 C44.0093345,59.3340008 44.3068315,59.419 44.6695,59.419 Z M54.6145,61.221 C53.9231632,61.221 53.2998361,61.1133344 52.7445,60.898 C52.1891639,60.6826656 51.7131686,60.3738353 51.3165,59.9715 C50.9198313,59.5691647 50.6138344,59.0846695 50.3985,58.518 C50.1831656,57.9513305 50.0755,57.3166702 50.0755,56.614 C50.0755,55.9113298 50.1831656,55.2738362 50.3985,54.7015 C50.6138344,54.1291638 50.9198313,53.6418353 51.3165,53.2395 C51.7131686,52.8371647 52.1891639,52.5255011 52.7445,52.3045 C53.2998361,52.0834989 53.9231632,51.973 54.6145,51.973 C55.3058368,51.973 55.9319972,52.0834989 56.493,52.3045 C57.0540028,52.5255011 57.5328313,52.8371647 57.9295,53.2395 C58.3261686,53.6418353 58.6321656,54.1291638 58.8475,54.7015 C59.0628344,55.2738362 59.1705,55.9113298 59.1705,56.614 C59.1705,57.3166702 59.0628344,57.9513305 58.8475,58.518 C58.6321656,59.0846695 58.3261686,59.5691647 57.9295,59.9715 C57.5328313,60.3738353 57.0540028,60.6826656 56.493,60.898 C55.9319972,61.1133344 55.3058368,61.221 54.6145,61.221 Z M54.6145,59.419 C55.022502,59.419 55.3653319,59.3396675 55.643,59.181 C55.9206681,59.0223325 56.1416658,58.8098347 56.306,58.5435 C56.4703342,58.2771653 56.5864997,57.976835 56.6545,57.6425 C56.7225003,57.308165 56.7565,56.9653351 56.7565,56.614 C56.7565,56.2626649 56.7225003,55.9170017 56.6545,55.577 C56.5864997,55.2369983 56.4703342,54.936668 56.306,54.676 C56.1416658,54.415332 55.9206681,54.2028342 55.643,54.0385 C55.3653319,53.8741658 55.022502,53.792 54.6145,53.792 C54.206498,53.792 53.8665014,53.8741658 53.5945,54.0385 C53.3224986,54.2028342 53.1043342,54.415332 52.94,54.676 C52.7756658,54.936668 52.6595003,55.2369983 52.5915,55.577 C52.5234997,55.9170017 52.4895,56.2626649 52.4895,56.614 C52.4895,56.9653351 52.5234997,57.308165 52.5915,57.6425 C52.6595003,57.976835 52.7756658,58.2771653 52.94,58.5435 C53.1043342,58.8098347 53.3224986,59.0223325 53.5945,59.181 C53.8665014,59.3396675 54.206498,59.419 54.6145,59.419 Z M62.8765,54.03 L59.9865,54.03 L59.9865,52.211 L68.1805,52.211 L68.1805,54.03 L65.2905,54.03 L65.2905,61 L62.8765,61 L62.8765,54.03 Z M73.5355,61.221 C72.8441632,61.221 72.2208361,61.1133344 71.6655,60.898 C71.1101639,60.6826656 70.6341686,60.3738353 70.2375,59.9715 C69.8408313,59.5691647 69.5348344,59.0846695 69.3195,58.518 C69.1041656,57.9513305 68.9965,57.3166702 68.9965,56.614 C68.9965,55.9113298 69.1041656,55.2738362 69.3195,54.7015 C69.5348344,54.1291638 69.8408313,53.6418353 70.2375,53.2395 C70.6341686,52.8371647 71.1101639,52.5255011 71.6655,52.3045 C72.2208361,52.0834989 72.8441632,51.973 73.5355,51.973 C74.2268368,51.973 74.8529972,52.0834989 75.414,52.3045 C75.9750028,52.5255011 76.4538313,52.8371647 76.8505,53.2395 C77.2471686,53.6418353 77.5531656,54.1291638 77.7685,54.7015 C77.9838344,55.2738362 78.0915,55.9113298 78.0915,56.614 C78.0915,57.3166702 77.9838344,57.9513305 77.7685,58.518 C77.5531656,59.0846695 77.2471686,59.5691647 76.8505,59.9715 C76.4538313,60.3738353 75.9750028,60.6826656 75.414,60.898 C74.8529972,61.1133344 74.2268368,61.221 73.5355,61.221 Z M73.5355,59.419 C73.943502,59.419 74.2863319,59.3396675 74.564,59.181 C74.8416681,59.0223325 75.0626658,58.8098347 75.227,58.5435 C75.3913342,58.2771653 75.5074997,57.976835 75.5755,57.6425 C75.6435003,57.308165 75.6775,56.9653351 75.6775,56.614 C75.6775,56.2626649 75.6435003,55.9170017 75.5755,55.577 C75.5074997,55.2369983 75.3913342,54.936668 75.227,54.676 C75.0626658,54.415332 74.8416681,54.2028342 74.564,54.0385 C74.2863319,53.8741658 73.943502,53.792 73.5355,53.792 C73.127498,53.792 72.7875014,53.8741658 72.5155,54.0385 C72.2434986,54.2028342 72.0253342,54.415332 71.861,54.676 C71.6966658,54.936668 71.5805003,55.2369983 71.5125,55.577 C71.4444997,55.9170017 71.4105,56.2626649 71.4105,56.614 C71.4105,56.9653351 71.4444997,57.308165 71.5125,57.6425 C71.5805003,57.976835 71.6966658,58.2771653 71.861,58.5435 C72.0253342,58.8098347 72.2434986,59.0223325 72.5155,59.181 C72.7875014,59.3396675 73.127498,59.419 73.5355,59.419 Z" id="Нет-фото" fill="#CCCECE"></path>
                </g>
            </g>
        </g>
    </g>
</svg>